<?xml version="1.0" standalone="no"?>
<!DOCTYPE svg PUBLIC "-//W3C//DTD SVG 20010904//EN"
 "http://www.w3.org/TR/2001/REC-SVG-20010904/DTD/svg10.dtd">
<svg version="1.0" xmlns="http://www.w3.org/2000/svg"
 width="80.000000pt" height="80.000000pt" viewBox="0 0 80.000000 80.000000"
 preserveAspectRatio="xMidYMid meet">
<metadata>
Created by potrace 1.14, written by Peter Selinger 2001-2017
</metadata>
<g transform="translate(0.000000,80.000000) scale(0.100000,-0.100000)"
fill="#000000" stroke="none">
<path d="M520 773 c-19 -8 -78 -23 -130 -34 -152 -29 -208 -55 -248 -113 -48
-70 -61 -210 -28 -289 20 -50 41 -49 33 1 -4 22 -3 31 2 23 13 -20 20 -1 20
59 0 77 15 110 71 155 14 11 19 13 13 5 -16 -17 -17 -50 -2 -50 6 0 32 15 58
34 25 18 64 39 86 46 60 19 84 38 132 103 59 80 58 88 -7 60z"/>
<path d="M610 590 c-17 -17 -20 -33 -20 -110 0 -49 4 -90 9 -90 4 0 20 9 35
21 25 19 26 25 26 110 0 97 -9 110 -50 69z"/>
<path d="M530 520 c-16 -16 -20 -33 -20 -90 0 -47 4 -70 12 -70 6 0 3 -6 -8
-14 -12 -9 -19 -27 -19 -50 -1 -20 0 -36 0 -36 9 0 131 53 141 61 8 6 14 27
14 45 l0 34 -51 -21 c-29 -11 -54 -18 -56 -15 -3 2 5 7 16 11 19 6 21 14 21
86 0 86 -10 99 -50 59z"/>
<path d="M208 491 c-16 -14 -20 -31 -22 -116 -4 -133 -3 -137 37 -120 22 9 34
23 39 42 5 20 6 13 6 -27 0 -80 0 -79 22 -73 27 7 50 41 50 74 0 22 7 28 40
38 l40 12 0 79 c0 85 -7 94 -45 66 -12 -8 -21 -32 -26 -62 l-6 -49 -2 53 c0
28 -3 52 -5 52 -1 0 -17 -5 -35 -11 -28 -10 -31 -15 -31 -55 0 -24 -3 -44 -7
-44 -5 0 -7 35 -5 78 3 68 1 79 -13 79 -9 0 -26 -8 -37 -16z m139 -173 c-3 -7
-5 -2 -5 12 0 14 2 19 5 13 2 -7 2 -19 0 -25z"/>
<path d="M450 490 c-16 -16 -20 -33 -20 -90 0 -38 2 -70 4 -70 1 0 17 5 35 11
l31 11 0 79 c0 86 -10 99 -50 59z"/>
<path d="M690 486 c0 -14 -4 -27 -9 -30 -4 -3 -10 -41 -13 -85 -3 -57 -9 -84
-22 -96 -16 -16 -19 -16 -33 -2 -15 14 -21 12 -73 -23 -32 -21 -70 -42 -86
-46 -35 -8 -80 -38 -112 -74 -36 -40 -82 -119 -73 -125 5 -2 24 2 43 10 19 8
81 23 137 35 180 36 234 64 276 142 43 79 51 208 18 276 -22 45 -53 56 -53 18z"/>
</g>
</svg>
